<svg width="69" height="13" viewBox="0 0 69 13" fill="none" xmlns="http://www.w3.org/2000/svg">
<path d="M0.512 13V0.399999H6.362C7.82 0.399999 8.918 0.778 9.656 1.516C10.232 2.092 10.52 2.812 10.52 3.658V3.694C10.52 5.098 9.764 5.944 8.864 6.412C10.322 6.97 11.222 7.834 11.222 9.508V9.544C11.222 11.848 9.35 13 6.506 13H0.512ZM3.212 5.494H5.768C6.992 5.494 7.766 5.098 7.766 4.162V4.126C7.766 3.28 7.118 2.83 5.948 2.83H3.212V5.494ZM3.212 10.57H6.506C7.73 10.57 8.468 10.138 8.468 9.202V9.166C8.468 8.32 7.856 7.798 6.416 7.798H3.212V10.57ZM16.2022 13V0.399999H21.9622C23.5642 0.399999 24.7882 0.831999 25.6342 1.678C26.3542 2.398 26.7142 3.352 26.7142 4.558V4.594C26.7142 6.628 25.6162 7.906 24.0142 8.5L27.0922 13H23.8522L21.1522 8.968H18.9742V13H16.2022ZM18.9742 6.52H21.7822C23.1502 6.52 23.9062 5.818 23.9062 4.738V4.702C23.9062 3.496 23.0962 2.902 21.7282 2.902H18.9742V6.52ZM32.036 13V0.399999H34.808V13H32.036ZM39.5769 13L44.9769 0.309999H47.5329L52.9329 13H50.0349L48.8829 10.174H43.5549L42.4029 13H39.5769ZM44.5449 7.726H47.8929L46.2189 3.64L44.5449 7.726ZM57.5776 13V0.399999H60.1336L66.0376 8.158V0.399999H68.7736V13H66.4156L60.3136 4.99V13H57.5776Z" fill="#F7FAFC"/>
</svg>
