<svg width="26" height="68" viewBox="0 0 26 68" fill="none" xmlns="http://www.w3.org/2000/svg">
<path d="M13.12 56.1583C12.9154 56.1564 12.7133 56.1142 12.5251 56.034C12.3369 55.9538 12.1664 55.8371 12.0234 55.6908L6.47953 50.0236C6.29211 49.8257 6.18999 49.562 6.1952 49.2895C6.20041 49.0169 6.31254 48.7574 6.50739 48.5668C6.70225 48.3761 6.96422 48.2697 7.23681 48.2705C7.5094 48.2713 7.77075 48.3792 7.9645 48.571L13.0424 53.7618C13.0559 53.7756 13.072 53.7867 13.0897 53.7943C13.1075 53.8019 13.1266 53.8059 13.1459 53.8061C13.1652 53.8063 13.1844 53.8027 13.2023 53.7955C13.2202 53.7883 13.2366 53.7776 13.2504 53.7641L18.4412 48.6862C18.6391 48.4988 18.9028 48.3967 19.1753 48.4019C19.4479 48.4071 19.7074 48.5192 19.8981 48.7141C20.0887 48.9089 20.1951 49.1709 20.1943 49.4435C20.1935 49.7161 20.0856 49.9774 19.8939 50.1712L14.2266 55.7151C14.0805 55.8582 13.9074 55.971 13.7175 56.0471C13.5276 56.1232 13.3246 56.1609 13.12 56.1583Z" fill="#4FD1C5"/>
<path d="M13.0543 62.1308C12.8497 62.129 12.6475 62.0868 12.4594 62.0065C12.2712 61.9263 12.1007 61.8097 11.9577 61.6634L6.41382 55.9962C6.22639 55.7982 6.12427 55.5346 6.12948 55.262C6.13469 54.9895 6.24682 54.7299 6.44168 54.5393C6.63653 54.3487 6.89851 54.2423 7.17109 54.2431C7.44368 54.2439 7.70503 54.3518 7.89879 54.5435L12.9767 59.7344C12.9902 59.7482 13.0062 59.7592 13.024 59.7668C13.0418 59.7744 13.0609 59.7785 13.0802 59.7787C13.0995 59.7789 13.1187 59.7753 13.1366 59.7681C13.1545 59.7609 13.1708 59.7502 13.1846 59.7367L18.3755 54.6588C18.5734 54.4714 18.8371 54.3692 19.1096 54.3745C19.3822 54.3797 19.6417 54.4918 19.8323 54.6866C20.023 54.8815 20.1294 55.1435 20.1286 55.4161C20.1278 55.6886 20.0199 55.95 19.8281 56.1438L14.1609 61.6876C14.0147 61.8308 13.8417 61.9436 13.6518 62.0197C13.4619 62.0957 13.2588 62.1335 13.0543 62.1308Z" fill="#4FD1C5"/>
<rect x="1" y="1" width="24" height="41" rx="12" stroke="#4FD1C5" stroke-width="2"/>
<path d="M12 18C12 17.4477 12.4477 17 13 17C13.5523 17 14 17.4477 14 18V26C14 26.5523 13.5523 27 13 27C12.4477 27 12 26.5523 12 26V18Z" fill="#4FD1C5"/>
</svg>
